<?xml version="1.0" encoding="UTF-8" standalone="no"?>
<!DOCTYPE svg PUBLIC "-//W3C//DTD SVG 1.1//EN"
 "http://www.w3.org/Graphics/SVG/1.1/DTD/svg11.dtd">
<!-- Generated by graphviz version 2.38.0 (20140413.2041)
 -->
<!-- Title: test Pages: 1 -->
<svg width="700pt" height="431pt"
 viewBox="0.00 0.00 699.83 431.00" xmlns="http://www.w3.org/2000/svg" xmlns:xlink="http://www.w3.org/1999/xlink">
<g id="graph0" class="graph" transform="scale(1 1) rotate(0) translate(4 427)">
<title>test</title>
<polygon fill="white" stroke="none" points="-4,4 -4,-427 695.827,-427 695.827,4 -4,4"/>
<!-- node1 -->
<g id="node1" class="node"><title>node1</title>
<polygon fill="white" stroke="black" points="135.5,-346.5 135.5,-407.5 326.5,-407.5 326.5,-346.5 135.5,-346.5"/>
<text text-anchor="middle" x="231" y="-392.3" font-family="Times,serif" font-size="14.00">PRMS_customer</text>
<polyline fill="none" stroke="black" points="135.5,-384.5 326.5,-384.5 "/>
<text text-anchor="start" x="143.5" y="-369.3" font-family="Times,serif" font-size="14.00">&#45; PRMS_customer_ID</text>
<text text-anchor="start" x="143.5" y="-354.3" font-family="Times,serif" font-size="14.00">&#45; PRMS_customer_name</text>
</g>
<!-- node2 -->
<g id="node2" class="node"><title>node2</title>
<polygon fill="white" stroke="black" points="356.5,-188.5 356.5,-264.5 657.5,-264.5 657.5,-188.5 356.5,-188.5"/>
<text text-anchor="middle" x="507" y="-249.3" font-family="Times,serif" font-size="14.00">PRMS_customer_person</text>
<polyline fill="none" stroke="black" points="356.5,-241.5 657.5,-241.5 "/>
<text text-anchor="start" x="364.5" y="-226.3" font-family="Times,serif" font-size="14.00">&#45; PRMS_customer_person_ID</text>
<text text-anchor="start" x="364.5" y="-211.3" font-family="Times,serif" font-size="14.00">&#45; PRMS_customer_person_person_ID</text>
<text text-anchor="start" x="364.5" y="-196.3" font-family="Times,serif" font-size="14.00">&#45; PRMS_customer_person_customer_ID</text>
</g>
<!-- node1&#45;&gt;node2 -->
<g id="edge1" class="edge"><title>node1&#45;&gt;node2</title>
<path fill="none" stroke="black" d="M285.859,-346.484C326.831,-324.439 383.392,-294.007 429.054,-269.438"/>
<polygon fill="none" stroke="black" points="430.886,-272.427 438.034,-264.607 427.569,-266.263 430.886,-272.427"/>
</g>
<!-- node4 -->
<g id="node4" class="node"><title>node4</title>
<polygon fill="white" stroke="black" points="0,-158.5 0,-294.5 338,-294.5 338,-158.5 0,-158.5"/>
<text text-anchor="middle" x="169" y="-279.3" font-family="Times,serif" font-size="14.00">PRMS_project</text>
<polyline fill="none" stroke="black" points="0,-271.5 338,-271.5 "/>
<text text-anchor="start" x="8" y="-256.3" font-family="Times,serif" font-size="14.00">&#45; PRMS_project_ID</text>
<text text-anchor="start" x="8" y="-241.3" font-family="Times,serif" font-size="14.00">&#45; PRMS_project_name</text>
<text text-anchor="start" x="8" y="-226.3" font-family="Times,serif" font-size="14.00">&#45; PRMS_project_start_date</text>
<text text-anchor="start" x="8" y="-211.3" font-family="Times,serif" font-size="14.00">&#45; PRMS_project_comment</text>
<text text-anchor="start" x="8" y="-196.3" font-family="Times,serif" font-size="14.00">&#45; PRMS_project_budget_hours</text>
<text text-anchor="start" x="8" y="-181.3" font-family="Times,serif" font-size="14.00">&#45; PRMS_project_customer_ID</text>
<text text-anchor="start" x="8" y="-166.3" font-family="Times,serif" font-size="14.00">&#45; PRMS_project_person_ID_project_manager</text>
</g>
<!-- node1&#45;&gt;node4 -->
<g id="edge2" class="edge"><title>node1&#45;&gt;node4</title>
<path fill="none" stroke="black" d="M218.602,-346.306C213.452,-333.969 207.214,-319.029 200.926,-303.967"/>
<polygon fill="none" stroke="black" points="204.095,-302.475 197.013,-294.595 197.636,-305.172 204.095,-302.475"/>
</g>
<!-- node3 -->
<g id="node3" class="node"><title>node3</title>
<polygon fill="white" stroke="black" points="407,-331.5 407,-422.5 607,-422.5 607,-331.5 407,-331.5"/>
<text text-anchor="middle" x="507" y="-407.3" font-family="Times,serif" font-size="14.00">PRMS_person</text>
<polyline fill="none" stroke="black" points="407,-399.5 607,-399.5 "/>
<text text-anchor="start" x="415" y="-384.3" font-family="Times,serif" font-size="14.00">&#45; PRMS_person_ID</text>
<text text-anchor="start" x="415" y="-369.3" font-family="Times,serif" font-size="14.00">&#45; PRMS_person_name</text>
<text text-anchor="start" x="415" y="-354.3" font-family="Times,serif" font-size="14.00">&#45; PRMS_person_e_mail</text>
<text text-anchor="start" x="415" y="-339.3" font-family="Times,serif" font-size="14.00">&#45; PRMS_person_LIAM_ID</text>
</g>
<!-- node3&#45;&gt;node2 -->
<g id="edge3" class="edge"><title>node3&#45;&gt;node2</title>
<path fill="none" stroke="black" d="M507,-331.445C507,-313.508 507,-292.802 507,-274.614"/>
<polygon fill="none" stroke="black" points="510.5,-274.521 507,-264.521 503.5,-274.521 510.5,-274.521"/>
</g>
<!-- node3&#45;&gt;node4 -->
<g id="edge4" class="edge"><title>node3&#45;&gt;node4</title>
<path fill="none" stroke="black" d="M406.961,-332.048C383.017,-321.528 356.845,-310.03 330.896,-298.629"/>
<polygon fill="none" stroke="black" points="332.295,-295.42 321.731,-294.602 329.479,-301.829 332.295,-295.42"/>
</g>
<!-- node5 -->
<g id="node5" class="node"><title>node5</title>
<polygon fill="white" stroke="black" points="316,-0.5 316,-121.5 538,-121.5 538,-0.5 316,-0.5"/>
<text text-anchor="middle" x="427" y="-106.3" font-family="Times,serif" font-size="14.00">PRMS_task</text>
<polyline fill="none" stroke="black" points="316,-98.5 538,-98.5 "/>
<text text-anchor="start" x="324" y="-83.3" font-family="Times,serif" font-size="14.00">&#45; PRMS_task_ID</text>
<text text-anchor="start" x="324" y="-68.3" font-family="Times,serif" font-size="14.00">&#45; PRMS_task_name</text>
<text text-anchor="start" x="324" y="-53.3" font-family="Times,serif" font-size="14.00">&#45; PRMS_task_budget_hours</text>
<text text-anchor="start" x="324" y="-38.3" font-family="Times,serif" font-size="14.00">&#45; PRMS_task_working_hours</text>
<text text-anchor="start" x="324" y="-23.3" font-family="Times,serif" font-size="14.00">&#45; PRMS_task_person_ID</text>
<text text-anchor="start" x="324" y="-8.3" font-family="Times,serif" font-size="14.00">&#45; PRMS_task_project_ID</text>
</g>
<!-- node3&#45;&gt;node5 -->
<g id="edge5" class="edge"><title>node3&#45;&gt;node5</title>
<path fill="none" stroke="black" d="M607.248,-346.039C630.849,-334.051 653.143,-317.547 667,-295 698.882,-243.125 701.136,-208.42 667,-158 639.928,-118.013 593.212,-94.681 548.148,-81.0669"/>
<polygon fill="none" stroke="black" points="548.842,-77.6245 538.264,-78.2243 546.907,-84.3518 548.842,-77.6245"/>
</g>
<!-- node4&#45;&gt;node5 -->
<g id="edge6" class="edge"><title>node4&#45;&gt;node5</title>
<path fill="none" stroke="black" d="M275.055,-158.29C291.238,-148.035 307.919,-137.464 324.034,-127.252"/>
<polygon fill="none" stroke="black" points="326.349,-129.928 332.922,-121.619 322.602,-124.016 326.349,-129.928"/>
</g>
</g>
</svg>
